<svg viewBox="0 0 256 256" xmlns="http://www.w3.org/2000/svg" preserveAspectRatio="xMidYMid">
  <rect fill="#3178C6" width="256" height="256" rx="20"/>
  <path d="M150.518 200.475v27.62c4.492 2.302 9.805 4.028 15.938 5.179 6.133 1.151 12.597 1.726 19.393 1.726 6.622 0 12.914-.633 18.874-1.899 5.96-1.266 11.187-3.352 15.678-6.257 4.492-2.906 8.048-6.704 10.669-11.394 2.62-4.689 3.93-10.486 3.93-17.391 0-5.006-.749-9.394-2.246-13.163a30.748 30.748 0 0 0-6.479-10.055c-2.821-2.935-6.205-5.567-10.149-7.898-3.945-2.33-8.394-4.531-13.347-6.602-3.628-1.497-6.881-2.949-9.761-4.359-2.879-1.41-5.327-2.848-7.342-4.316-2.016-1.467-3.571-3.021-4.665-4.661-1.094-1.64-1.641-3.495-1.641-5.567 0-1.899.489-3.61 1.468-5.135s2.362-2.834 4.147-3.927c1.785-1.094 3.973-1.942 6.565-2.547 2.591-.604 5.471-.907 8.638-.907 2.246 0 4.665.173 7.256.518 2.591.345 5.211.865 7.861 1.554a53.21 53.21 0 0 1 7.689 2.677 35.036 35.036 0 0 1 6.565 3.711v-25.807c-4.147-1.64-8.726-2.862-13.738-3.668-5.011-.807-10.812-1.21-17.401-1.21-6.622 0-12.914.676-18.874 2.028-5.96 1.352-11.244 3.495-15.852 6.43-4.608 2.935-8.279 6.761-11.013 11.479-2.734 4.718-4.101 10.458-4.101 17.221 0 8.29 2.419 15.341 7.256 21.15 4.838 5.81 12.181 10.67 22.03 14.582 3.974 1.554 7.659 3.078 11.056 4.575 3.398 1.496 6.336 3.078 8.814 4.747 2.478 1.669 4.42 3.538 5.826 5.609 1.406 2.071 2.109 4.446 2.109 7.126 0 1.726-.403 3.337-1.21 4.835-.807 1.497-2.044 2.805-3.711 3.927-1.669 1.122-3.772 2-6.307 2.634-2.534.633-5.528.95-8.98.95-5.875 0-11.692-1.036-17.451-3.107-5.76-2.072-10.985-5.179-15.678-9.323Zm-46.262-60.037h32.645v-22.67H45.449v22.67h32.473v90.562h26.334v-90.562Z" fill="#FFF"/>
</svg>
