<svg width="76" height="54" viewBox="0 0 76 54" fill="none" xmlns="http://www.w3.org/2000/svg">
<path d="M5.99586 52.7607C6.49421 53.5332 7.35572 54 8.27804 54L27.1429 54C31.6331 54 35.2857 50.3666 35.2857 45.9L35.2857 27C35.2857 22.5334 31.6331 18.9 27.1429 18.9L21.7539 18.9C24.2747 11.6384 26.4271 8.16075 33.5893 5.19183C34.7847 4.69611 35.4608 3.43062 35.2062 2.16756C34.9519 0.906926 33.8385 -3.94352e-06 32.5448 -3.83042e-06L32.5394 -3.82995e-06C17.5975 0.0264575 9.01469 5.98536 2.92872 20.5505C0.98611 25.1254 5.53313e-06 30.0216 5.9771e-06 35.1C6.65988e-06 42.91 2.37501 47.1631 5.99586 52.7607ZM48.9923 54L67.8571 54C72.3474 54 76 50.3666 76 45.9L76 27C76 22.5334 72.3474 18.9 67.8571 18.9L62.4682 18.9C64.989 11.6383 67.1414 8.16074 74.3036 5.19182C75.4989 4.6961 76.1751 3.43061 75.9205 2.16755C75.6661 0.906923 74.5527 -7.50287e-06 73.2591 -7.38978e-06L73.2537 -7.3893e-06C58.3118 0.0264539 49.729 5.98536 43.643 20.5505C41.7004 25.1254 40.7143 30.0216 40.7143 35.1C40.7143 42.91 43.0893 47.1631 46.7101 52.7607C47.2085 53.5332 48.07 54 48.9923 54Z" fill="#2A17FF" fill-opacity="0.85"/>
</svg>
