<svg width="54" height="82" viewBox="0 0 54 82" fill="none" xmlns="http://www.w3.org/2000/svg">
<g clip-path="url(#clip0_2_74)">
<path d="M13.5041 81.5C20.9538 81.5 26.9999 75.452 26.9999 68V54.5H13.5041C6.05441 54.5 0.00830078 60.548 0.00830078 68C0.00830078 75.452 6.05441 81.5 13.5041 81.5Z" fill="#0ACF83"/>
<path d="M0.00830078 41C0.00830078 33.548 6.05441 27.5 13.5041 27.5H26.9999V54.5H13.5041C6.05441 54.5 0.00830078 48.452 0.00830078 41Z" fill="#A259FF"/>
<path d="M0.00830078 14C0.00830078 6.548 6.05441 0.5 13.5041 0.5H26.9999V27.5H13.5041C6.05441 27.5 0.00830078 21.452 0.00830078 14Z" fill="#F24E1E"/>
<path d="M27 0.5H40.4958C47.9455 0.5 53.9916 6.548 53.9916 14C53.9916 21.452 47.9455 27.5 40.4958 27.5H27V0.5Z" fill="#FF7262"/>
<path d="M53.9916 41C53.9916 48.452 47.9455 54.5 40.4958 54.5C33.0461 54.5 27 48.452 27 41C27 33.548 33.0461 27.5 40.4958 27.5C47.9455 27.5 53.9916 33.548 53.9916 41Z" fill="#1ABCFE"/>
</g>
<defs>
<clipPath id="clip0_2_74">
<rect width="54" height="81" fill="white" transform="translate(0 0.5)"/>
</clipPath>
</defs>
</svg>
