<svg width="73" height="72" viewBox="0 0 73 72" fill="none" xmlns="http://www.w3.org/2000/svg">
<g clip-path="url(#clip0_2_91)">
<path d="M36.5 0.5C16.3453 0.5 0.00195312 16.7752 0.00195312 36.8523C0.00195312 52.9136 10.4597 66.5402 24.9616 71.3469C26.7856 71.6835 27.4554 70.5583 27.4554 69.5981C27.4554 68.7313 27.4212 65.8677 27.4058 62.8303C17.252 65.0291 15.1095 58.5411 15.1095 58.5411C13.4491 54.3393 11.0568 53.2218 11.0568 53.2218C7.74547 50.9657 11.3066 51.0122 11.3066 51.0122C14.9715 51.2684 16.9013 54.7582 16.9013 54.7582C20.1567 60.3155 25.4398 58.7089 27.5224 57.78C27.85 55.4307 28.7958 53.8267 29.8397 52.919C21.733 52 13.211 48.8828 13.211 34.9537C13.211 30.9848 14.6367 27.7418 16.9714 25.1961C16.5925 24.2805 15.3433 20.5833 17.325 15.5759C17.325 15.5759 20.39 14.5989 27.3647 19.3022C30.276 18.4968 33.3983 18.0929 36.5 18.079C39.6018 18.0929 42.7266 18.4965 45.6433 19.3022C52.6095 14.5992 55.6702 15.5761 55.6702 15.5761C57.6567 20.5831 56.407 24.2807 56.028 25.1961C58.3682 27.7418 59.7842 30.9848 59.7842 34.9537C59.7842 48.916 51.246 51.9903 43.1187 52.8903C44.4277 54.0184 45.5942 56.2307 45.5942 59.6223C45.5942 64.4861 45.552 68.4007 45.552 69.5981C45.552 70.5656 46.209 71.6991 48.059 71.3418C62.5529 66.53 72.9975 52.9085 72.9975 36.8526C72.9975 16.7752 56.6565 0.5 36.5 0.5ZM13.6718 52.2846C13.5914 52.4652 13.306 52.5194 13.0462 52.3953C12.7813 52.2769 12.6327 52.0307 12.7183 51.8495C12.797 51.6635 13.083 51.6115 13.347 51.7362C13.6122 51.8549 13.7633 52.1034 13.6718 52.2846ZM15.467 53.8801C15.2931 54.0408 14.9526 53.9661 14.7217 53.7122C14.483 53.4589 14.4382 53.1198 14.6148 52.9568C14.7944 52.796 15.1243 52.8713 15.3635 53.1246C15.6025 53.3811 15.6487 53.7176 15.467 53.8801ZM16.6988 55.9215C16.475 56.0762 16.1094 55.9311 15.8833 55.6079C15.6598 55.2847 15.6598 54.8971 15.8882 54.7417C16.1149 54.5864 16.475 54.7261 16.704 55.047C16.9269 55.3756 16.9269 55.7633 16.6985 55.9217M18.7812 58.286C18.5813 58.5059 18.155 58.4468 17.8431 58.1469C17.524 57.8538 17.4353 57.438 17.6361 57.2182C17.8385 56.9978 18.2671 57.0597 18.5813 57.3574C18.8978 57.6499 18.9948 58.0688 18.7812 58.286ZM21.4735 59.0841C21.3851 59.3689 20.9745 59.4984 20.5613 59.3775C20.1484 59.2528 19.8784 58.9194 19.9617 58.6317C20.0475 58.3448 20.4598 58.2102 20.8761 58.3397C21.2884 58.4635 21.5593 58.7947 21.4735 59.0844M24.537 59.4232C24.5473 59.7228 24.1968 59.9713 23.7629 59.977C23.3266 59.9866 22.9733 59.7441 22.9685 59.4487C22.9685 59.1463 23.3112 58.9001 23.7477 58.8927C24.1817 58.8842 24.537 59.125 24.537 59.4232ZM27.5467 59.3082C27.5985 59.6007 27.2972 59.9012 26.866 59.9812C26.4426 60.0582 26.0502 59.8776 25.9964 59.5876C25.9439 59.2877 26.251 58.9872 26.6738 58.9097C27.1055 58.835 27.4916 59.0108 27.5467 59.3082Z" fill="#161614"/>
</g>
<defs>
<clipPath id="clip0_2_91">
<rect width="73" height="71" fill="white" transform="translate(0 0.5)"/>
</clipPath>
</defs>
</svg>
