<svg width="29" height="29" viewBox="0 0 29 29" fill="none" xmlns="http://www.w3.org/2000/svg">
<g clip-path="url(#clip0_146_258)">
<path d="M24.5728 4.22456C22.4053 2.05704 20.09 3.45993 18.641 4.90896L4.95269 18.5976C3.50368 20.0465 1.98704 22.248 4.2683 24.5289C6.54958 26.8107 8.75106 25.2937 10.1998 23.8447L23.8883 10.1564C25.3373 8.70719 26.7402 6.39177 24.5728 4.22456Z" fill="#2A17FF"/>
<path d="M11.4956 3.66401L14.3941 6.56234L17.3444 3.61205C17.5446 3.41128 17.748 3.22497 17.9526 3.04926C17.6437 1.4905 16.7542 0.0812988 14.3927 0.0812988C12.0267 0.0812988 11.1384 1.49603 10.8311 3.05818C11.052 3.24926 11.2724 3.4408 11.4956 3.66401Z" fill="#2A17FF"/>
<path d="M17.3426 25.1934L14.3941 22.2449L11.4972 25.1415C11.2772 25.3616 11.0583 25.5627 10.8403 25.7516C11.1725 27.3406 12.1127 28.7961 14.3929 28.7961C16.6791 28.7961 17.618 27.3328 17.9481 25.7387C17.7453 25.5642 17.5424 25.3931 17.3426 25.1934Z" fill="#2A17FF"/>
<path d="M10.2662 10.6902H4.6783C2.62945 10.6902 0 11.3357 0 14.4007C0 16.6876 1.46377 17.6268 3.05819 17.9566C3.24697 17.7386 10.2662 10.6902 10.2662 10.6902Z" fill="#2A17FF"/>
<path d="M25.7391 10.8391C25.5623 11.0448 18.5283 18.1111 18.5283 18.1111H24.0369C26.0859 18.1111 28.7152 17.627 28.7152 14.4008C28.7152 12.0351 27.3009 11.1463 25.7391 10.8391Z" fill="#2A17FF"/>
<path d="M12.0972 8.85603L13.0955 7.85775L10.1988 4.96073C8.74967 3.51185 6.54847 1.99505 4.2672 4.27633C2.59437 5.94917 2.96592 7.57722 3.85322 8.89892C4.12347 8.87901 12.0972 8.85603 12.0972 8.85603Z" fill="#2A17FF"/>
<path d="M16.6898 19.9454L15.689 20.9462L18.6395 23.8965C20.0885 25.3457 22.4039 26.7482 24.5711 24.581C26.1883 22.9637 25.8172 21.265 24.9232 19.9043C24.6354 19.9251 16.6898 19.9454 16.6898 19.9454Z" fill="#2A17FF"/>
</g>
<defs>
<clipPath id="clip0_146_258">
<rect width="29" height="29" fill="white"/>
</clipPath>
</defs>
</svg>
