<svg width="38" height="38" viewBox="0 0 38 38" fill="none" xmlns="http://www.w3.org/2000/svg">
<path d="M32.1992 5.5357C29.359 2.69551 26.3251 4.53378 24.4264 6.4325L6.49003 24.3694C4.59133 26.2679 2.604 29.1526 5.59325 32.1414C8.58251 35.1313 11.4672 33.1436 13.3655 31.2449L31.3022 13.3084C33.2009 11.4095 35.0392 8.3755 32.1992 5.5357Z" fill="white"/>
<path d="M15.0632 4.80109L18.8612 8.59891L22.7271 4.73301C22.9895 4.46993 23.256 4.2258 23.5241 3.99556C23.1193 1.95304 21.9538 0.106506 18.8594 0.106506C15.7591 0.106506 14.5951 1.96029 14.1924 4.00725C14.4819 4.25763 14.7707 4.50861 15.0632 4.80109Z" fill="white"/>
<path d="M22.7248 33.0122L18.8613 29.1486L15.0653 32.9442C14.7771 33.2326 14.4902 33.4961 14.2046 33.7436C14.6399 35.8258 15.8718 37.733 18.8597 37.733C21.8554 37.733 23.0857 35.8156 23.5182 33.7267C23.2525 33.4981 22.9866 33.2739 22.7248 33.0122Z" fill="white"/>
<path d="M13.4522 14.0079H6.13018C3.44549 14.0079 0 14.8537 0 18.8699C0 21.8666 1.91804 23.0972 4.00729 23.5294C4.25465 23.2438 13.4522 14.0079 13.4522 14.0079Z" fill="white"/>
<path d="M33.7269 14.2029C33.4952 14.4724 24.2783 23.7317 24.2783 23.7317H31.4964C34.1813 23.7317 37.6266 23.0974 37.6266 18.8699C37.6266 15.7701 35.7734 14.6054 33.7269 14.2029Z" fill="white"/>
<path d="M15.8513 11.6044L17.1594 10.2963L13.3638 6.50021C11.4649 4.60167 8.58057 2.61414 5.59132 5.60341C3.39934 7.79541 3.8862 9.92871 5.04886 11.6606C5.40298 11.6345 15.8513 11.6044 15.8513 11.6044Z" fill="white"/>
<path d="M21.8696 26.1352L20.5581 27.4467L24.4243 31.3126C26.323 33.2115 29.357 35.0493 32.1968 32.2095C34.3159 30.0903 33.8296 27.8644 32.6581 26.0814C32.281 26.1086 21.8696 26.1352 21.8696 26.1352Z" fill="white"/>
</svg>
