<svg width="38" height="38" viewBox="0 0 38 38" fill="none" xmlns="http://www.w3.org/2000/svg">
<path d="M32.1992 5.42919C29.359 2.589 26.3251 4.42727 24.4264 6.32599L6.49003 24.2629C4.59133 26.1614 2.604 29.0461 5.59325 32.0349C8.58251 35.0248 11.4672 33.0371 13.3655 31.1384L31.3022 13.2019C33.2009 11.303 35.0392 8.26899 32.1992 5.42919Z" fill="#E43D12"/>
<path d="M15.0632 4.69458L18.8612 8.4924L22.7271 4.6265C22.9895 4.36342 23.256 4.11929 23.5241 3.88905C23.1193 1.84653 21.9538 0 18.8594 0C15.7591 0 14.5951 1.85378 14.1924 3.90074C14.4819 4.15112 14.7707 4.4021 15.0632 4.69458Z" fill="#E43D12"/>
<path d="M22.7248 32.9057L18.8613 29.0421L15.0653 32.8377C14.7771 33.1261 14.4902 33.3896 14.2046 33.6371C14.6399 35.7193 15.8718 37.6265 18.8597 37.6265C21.8554 37.6265 23.0857 35.7091 23.5182 33.6202C23.2525 33.3916 22.9866 33.1674 22.7248 32.9057Z" fill="#E43D12"/>
<path d="M13.4522 13.9014H6.13018C3.44549 13.9014 0 14.7472 0 18.7634C0 21.7601 1.91804 22.9907 4.00729 23.4229C4.25465 23.1373 13.4522 13.9014 13.4522 13.9014Z" fill="#E43D12"/>
<path d="M33.7269 14.0964C33.4952 14.3659 24.2783 23.6252 24.2783 23.6252H31.4964C34.1813 23.6252 37.6266 22.9909 37.6266 18.7634C37.6266 15.6636 35.7734 14.4989 33.7269 14.0964Z" fill="#E43D12"/>
<path d="M15.8513 11.4979L17.1594 10.1898L13.3638 6.3937C11.4649 4.49516 8.58057 2.50763 5.59132 5.4969C3.39934 7.6889 3.8862 9.8222 5.04886 11.5541C5.40298 11.528 15.8513 11.4979 15.8513 11.4979Z" fill="#E43D12"/>
<path d="M21.8696 26.0287L20.5581 27.3402L24.4243 31.2061C26.323 33.105 29.357 34.9428 32.1968 32.103C34.3159 29.9838 33.8296 27.7579 32.6581 25.9749C32.281 26.0021 21.8696 26.0287 21.8696 26.0287Z" fill="#E43D12"/>
</svg>
