<svg width="72" height="72" viewBox="0 0 72 72" fill="none" xmlns="http://www.w3.org/2000/svg">
<g clip-path="url(#clip0_2_81)">
<mask id="mask0_2_81" style="mask-type:luminance" maskUnits="userSpaceOnUse" x="0" y="0" width="72" height="72">
<path d="M36 72C55.8823 72 72 55.8823 72 36C72 16.1177 55.8823 0 36 0C16.1177 0 0 16.1177 0 36C0 55.8823 16.1177 72 36 72Z" fill="white"/>
</mask>
<g mask="url(#mask0_2_81)">
<path d="M36 72C55.8823 72 72 55.8823 72 36C72 16.1177 55.8823 0 36 0C16.1177 0 0 16.1177 0 36C0 55.8823 16.1177 72 36 72Z" fill="black"/>
<path d="M59.8034 63.0079L27.6568 21.6H21.6001V50.3879H26.4455V27.7537L55.9998 65.9379C57.3312 65.0467 58.6019 64.0678 59.8034 63.0079Z" fill="url(#paint0_linear_2_81)"/>
<path d="M46 21.6H50.8001V50.4H46V21.6Z" fill="url(#paint1_linear_2_81)"/>
</g>
</g>
<defs>
<linearGradient id="paint0_linear_2_81" x1="2146.96" y1="2521.59" x2="3422.73" y2="4102.85" gradientUnits="userSpaceOnUse">
<stop stop-color="white"/>
<stop offset="1" stop-color="white" stop-opacity="0"/>
</linearGradient>
<linearGradient id="paint1_linear_2_81" x1="286.005" y1="21.6" x2="277.883" y2="2136.58" gradientUnits="userSpaceOnUse">
<stop stop-color="white"/>
<stop offset="1" stop-color="white" stop-opacity="0"/>
</linearGradient>
<clipPath id="clip0_2_81">
<rect width="72" height="72" fill="white"/>
</clipPath>
</defs>
</svg>
