<svg width="76" height="68" viewBox="0 0 76 68" fill="none" xmlns="http://www.w3.org/2000/svg">
<g clip-path="url(#clip0_2_93)">
<path d="M62.4868 22.0176C61.678 21.7389 60.8624 21.4806 60.0406 21.2431C60.1786 20.6764 60.3057 20.1166 60.4185 19.5667C62.2704 10.5355 61.0598 3.25977 56.9246 0.864264C52.9599 -1.43223 46.4758 0.962387 39.9274 6.68781C39.282 7.25308 38.651 7.83465 38.0348 8.43195C37.6224 8.03476 37.2026 7.64529 36.7758 7.26372C29.9127 1.14193 23.0335 -1.43819 18.9028 0.964176C14.9416 3.26783 13.7687 10.1075 15.4359 18.6665C15.6018 19.5142 15.7891 20.3575 15.9976 21.1957C15.0239 21.4736 14.0843 21.7695 13.185 22.0844C5.13858 24.9029 0 29.3196 0 33.9009C0 38.6326 5.5165 43.3786 13.8972 46.2564C14.5767 46.4887 15.2618 46.704 15.9519 46.9021C15.7278 47.8047 15.5288 48.7136 15.3552 49.6274C13.7657 58.0379 15.007 64.716 18.9575 67.005C23.0377 69.3689 29.886 66.9394 36.554 61.0833C37.0947 60.6072 37.6235 60.1177 38.1399 59.6151C38.8072 60.2618 39.4922 60.8898 40.1943 61.4982C46.6537 67.0819 53.0329 69.3367 56.9795 67.0414C61.0559 64.6706 62.3808 57.4966 60.6608 48.7685C60.5253 48.0847 60.3733 47.4043 60.2051 46.7279C60.686 46.5847 61.158 46.4374 61.6182 46.2841C70.3308 43.3842 75.9996 38.6958 75.9996 33.9009C75.9996 29.3029 70.6951 24.8563 62.4868 22.0176ZM60.5972 43.1883C60.1816 43.3264 59.7553 43.4597 59.3207 43.5894C58.3588 40.5303 57.0609 37.2777 55.4723 33.9167C56.9881 30.636 58.2362 27.4248 59.1711 24.3857C59.9486 24.6118 60.7029 24.8501 61.4303 25.1015C68.4632 27.534 72.753 31.1299 72.753 33.9009C72.753 36.8524 68.12 40.6839 60.5972 43.1883ZM57.4759 49.4019C58.2365 53.2612 58.3449 56.7507 57.8411 59.4788C57.3886 61.9301 56.4784 63.5641 55.3527 64.2188C52.9578 65.6116 47.8358 63.8012 42.3119 59.0257C41.6589 58.4601 41.0216 57.8763 40.4009 57.275C42.5426 54.9222 44.6827 52.187 46.7715 49.149C50.4456 48.8216 53.9167 48.2859 57.0644 47.5549C57.2161 48.1672 57.3533 48.7831 57.4759 49.4019ZM25.9099 63.9781C23.57 64.8081 21.7062 64.832 20.5796 64.1794C18.1823 62.7905 17.1857 57.4283 18.5451 50.2358C18.7067 49.3859 18.8917 48.5407 19.1 47.7011C22.213 48.393 25.6588 48.8905 29.3415 49.1905C31.4445 52.1631 33.6465 54.8953 35.8656 57.2879C35.394 57.7463 34.9112 58.193 34.4177 58.6276C31.4689 61.2169 28.5141 63.0541 25.9099 63.9781ZM14.9476 43.1701C11.2417 41.8975 8.18124 40.2437 6.08353 38.439C4.19839 36.8175 3.24691 35.2072 3.24691 33.9009C3.24691 31.1207 7.37256 27.5745 14.2538 25.1644C15.0889 24.8721 15.9629 24.5963 16.8698 24.3374C17.821 27.4451 19.0685 30.6945 20.5739 33.9803C19.0489 37.3146 17.7836 40.6159 16.8232 43.7603C16.1933 43.5791 15.5679 43.3823 14.9476 43.1701ZM18.6223 18.0399C17.194 10.707 18.1425 5.1754 20.5297 3.78707C23.0721 2.30837 28.6943 4.41667 34.6202 9.70277C35.0066 10.0483 35.3868 10.4007 35.7605 10.7601C33.5523 13.1421 31.3706 15.8541 29.2863 18.8091C25.7119 19.1419 22.2905 19.6764 19.1448 20.3925C18.951 19.6129 18.7768 18.8283 18.6223 18.0399ZM51.4051 26.1728C50.6621 24.8834 49.8916 23.6103 49.094 22.3544C51.5188 22.6624 53.8422 23.0713 56.0239 23.5712C55.369 25.6804 54.5526 27.8853 53.5916 30.146C52.8892 28.8071 52.1602 27.4824 51.4051 26.1728ZM38.0363 13.0914C39.5338 14.7214 41.0336 16.5409 42.5087 18.5153C39.5162 18.3734 36.5188 18.3728 33.5262 18.5135C35.0029 16.5574 36.5154 14.7401 38.0363 13.0914ZM24.5817 26.1949C23.8361 27.494 23.1207 28.8104 22.4362 30.143C21.491 27.8904 20.682 25.6753 20.0214 23.5363C22.1898 23.049 24.5022 22.6505 26.9116 22.3481C26.1051 23.6117 25.3283 24.8946 24.5817 26.1949ZM26.9808 45.6858C24.4915 45.4067 22.1444 45.0288 19.9766 44.5546C20.6476 42.3774 21.4743 40.1152 22.4401 37.8142C23.1273 39.1478 23.8456 40.4651 24.5945 41.7648C25.3646 43.1009 26.162 44.4096 26.9808 45.6858ZM38.126 54.9404C36.587 53.2726 35.0522 51.4273 33.5532 49.4428C35.0085 49.5001 36.492 49.5293 37.9998 49.5293C39.5489 49.5293 41.0802 49.4944 42.5874 49.427C41.1075 51.4473 39.6133 53.2952 38.126 54.9404ZM53.6222 37.6967C54.6381 40.023 55.4943 42.2733 56.1741 44.4132C53.9707 44.9184 51.5916 45.3252 49.0848 45.6273C49.8881 44.348 50.6659 43.0528 51.4179 41.7424C52.1825 40.4104 52.9174 39.0615 53.6222 37.6967ZM48.6056 40.1128C47.4544 42.1219 46.2385 44.0928 44.9597 46.0225C42.6434 46.1873 40.3219 46.2692 37.9998 46.268C35.6346 46.268 33.3341 46.194 31.1189 46.0497C29.8068 44.1244 28.5676 42.15 27.4041 40.1307C26.2461 38.122 25.1647 36.0699 24.1616 33.9788C25.1621 31.8871 26.2405 29.8341 27.3946 27.8239L27.3943 27.8242C28.548 25.8135 29.7772 23.8475 31.0794 21.9305C33.3395 21.7588 35.6572 21.6693 37.9995 21.6693C40.3525 21.6693 42.6735 21.7596 44.933 21.9326C46.222 23.8467 47.4434 25.8059 48.5949 27.8066C49.7529 29.8123 50.8455 31.8554 51.8712 33.9325C50.8561 36.0309 49.7668 38.0923 48.6056 40.1128ZM55.3031 3.68984C57.8479 5.16437 58.8377 11.1105 57.2387 18.9081C57.1366 19.4056 57.022 19.9123 56.8973 20.4262C53.7439 19.6949 50.3201 19.1512 46.7353 18.8133C44.6471 15.8258 42.4832 13.1096 40.311 10.7583C40.8803 10.207 41.4631 9.66995 42.059 9.14774C47.6699 4.24249 52.9138 2.30568 55.3031 3.68984ZM37.9998 27.083C41.7478 27.083 44.7863 30.1356 44.7863 33.9009C44.7863 37.6663 41.7478 40.7188 37.9998 40.7188C34.2518 40.7188 31.2133 37.6663 31.2133 33.9009C31.2133 30.1356 34.2518 27.083 37.9998 27.083Z" fill="#00D8FF"/>
</g>
<defs>
<clipPath id="clip0_2_93">
<rect width="76" height="68" fill="white"/>
</clipPath>
</defs>
</svg>
