<svg width="98" height="60" viewBox="0 0 98 60" fill="none" xmlns="http://www.w3.org/2000/svg">
<g clip-path="url(#clip0_2_89)">
<path d="M49.0001 0.5C35.9348 0.5 27.7687 7.03866 24.5025 20.1156C29.402 13.5769 35.118 11.125 41.6508 12.7597C45.3779 13.6922 48.042 16.399 50.9909 19.3946C55.7947 24.2751 61.3542 29.9234 73.4977 29.9234C86.563 29.9234 94.7291 23.3847 97.9953 10.3078C93.0958 16.8464 87.3798 19.2984 80.847 17.6636C77.1199 16.7311 74.4558 14.0244 71.5069 11.0288C66.7031 6.14829 61.1436 0.5 49.0001 0.5ZM24.5025 29.9234C11.4372 29.9234 3.2711 36.462 0.00488281 49.539C4.9044 43.0003 10.6204 40.5484 17.1532 42.1831C20.8803 43.1156 23.5444 45.8223 26.4933 48.8179C31.2971 53.6985 36.8566 59.3468 49.0001 59.3468C62.0654 59.3468 70.2315 52.8081 73.4977 39.7312C68.5982 46.2698 62.8822 48.7218 56.3494 47.087C52.6223 46.1545 49.9582 43.4478 47.0093 40.4522C42.2055 35.5717 36.646 29.9234 24.5025 29.9234Z" fill="url(#paint0_linear_2_89)"/>
</g>
<defs>
<linearGradient id="paint0_linear_2_89" x1="-272.213" y1="1883.6" x2="8194.63" y2="6761.07" gradientUnits="userSpaceOnUse">
<stop stop-color="#2298BD"/>
<stop offset="1" stop-color="#0ED7B5"/>
</linearGradient>
<clipPath id="clip0_2_89">
<rect width="98" height="59" fill="white" transform="translate(0 0.5)"/>
</clipPath>
</defs>
</svg>
