<svg width="45" height="45" viewBox="0 0 45 45" fill="none" xmlns="http://www.w3.org/2000/svg">
<path d="M29.6545 8.32799C31.615 12.6508 34.0209 17.9557 35.8269 20.0629C36.1794 19.2443 36.1417 17.8716 36.5447 14.5215C36.9086 11.4962 39.4036 11.2091 40.4742 11.4232C42.8419 11.9169 43.5633 14.3167 43.4843 15.2015C43.3584 16.612 43.3523 16.5642 43.0939 19.9749C42.716 24.9622 44.6429 28.7279 44.8193 32.9975C44.8193 41.0454 37.7664 45 32.8294 45C28.8797 45 24.9285 42.4727 23.4465 41.209L16.0409 34.4458C15.1341 33.7405 12.893 31.4135 11.9098 30.0756C9.22971 26.4282 13.1064 23.9169 15.2851 24.5466C15.1138 24.4155 14.0804 22.7372 13.585 21.9144C12.255 19.2443 13.585 17.4658 14.5674 16.9773C16.7966 15.869 18.4339 17.1158 18.9502 17.796C18.7529 17.4602 18.1342 16.1033 17.1366 13.6145C16.1392 11.1259 17.7453 9.58857 18.6733 9.13098C20.6884 8.19899 22.6027 9.38286 23.0812 10.4408C23.3156 10.9589 24.5798 13.7275 25.1302 14.9487C24.7154 13.9361 23.964 11.9246 23.6983 10.995C23.1694 8.80353 24.4413 7.30061 25.2474 6.91438C26.3683 6.37736 28.7061 6.23671 29.6303 8.27458L29.6545 8.32799Z" fill="#FFCF4C"/>
<path d="M25.1213 7.78534C25.2911 7.23608 25.5258 6.9052 25.7026 6.73962C25.5354 6.78995 25.3813 6.84931 25.2453 6.9145C24.4392 7.30074 23.1673 8.80365 23.6962 10.9951C23.9619 11.9248 24.7133 13.9363 25.1281 14.9489L24.9288 14.5081C25.8387 16.5951 26.9715 18.8434 27.8253 20.2954C28.0508 20.6791 28.5449 20.8072 28.9286 20.5815C29.3124 20.356 29.4406 19.8619 29.2149 19.4782C27.8293 17.1218 25.7195 12.6508 25.1165 10.4311C24.8421 9.42137 24.9037 8.48987 25.1213 7.78534Z" fill="#C1720D"/>
<path d="M13.5835 21.9144C13.958 22.5367 14.64 23.6477 15.0245 24.2095C15.5341 24.8224 16.0922 25.4097 16.6566 25.9685C17.3003 26.6057 17.9693 27.2219 18.603 27.8055L18.6566 27.8548C19.3111 28.4575 19.9227 29.0223 20.4534 29.5592C20.7663 29.8759 21.2767 29.8788 21.5933 29.5659C21.9099 29.253 21.9128 28.7426 21.5999 28.4259C21.0379 27.8574 20.3978 27.2667 19.7487 26.6691L19.7033 26.6272C19.0639 26.0383 18.4135 25.4392 17.7907 24.8228C16.5043 23.5492 15.4058 22.2673 14.8214 20.9773C14.4079 20.0642 14.3063 18.9959 14.4192 18.1123C14.4754 17.6723 14.5809 17.3107 14.7024 17.0573C14.7432 16.9722 14.7808 16.9093 14.8127 16.8631C14.7313 16.898 14.6489 16.9361 14.5657 16.9774C13.5835 17.4658 12.2534 19.2444 13.5835 21.9144Z" fill="#C1720D"/>
<path d="M18.8336 9.06003C18.6623 9.17623 18.4257 9.45696 18.2763 10.0022C18.1079 10.6165 18.0818 11.4801 18.3648 12.5218C18.7749 14.0306 19.8024 16.0544 20.9784 18.0373C22.144 20.0023 23.414 21.8589 24.2579 23.013C24.5207 23.3723 24.4423 23.8766 24.083 24.1394C23.7237 24.4021 23.2192 24.3238 22.9565 23.9645C22.0876 22.776 20.788 20.8762 19.5919 18.8596C19.2709 18.3186 18.9543 17.7639 18.6538 17.2084C18.3411 16.5363 17.8295 15.3509 17.1336 13.6147C16.1362 11.126 17.7423 9.58868 18.6702 9.13107C18.7247 9.10586 18.7792 9.08219 18.8336 9.06003Z" fill="#C1720D"/>
<path d="M36.2342 17.5039C36.1169 18.7845 36.05 19.5156 35.8394 20.0292C35.827 20.1898 35.8153 20.3365 35.8032 20.4687C35.7629 20.912 36.0896 21.3041 36.533 21.3444C36.9763 21.3847 37.3683 21.0581 37.4086 20.6147C37.4327 20.3505 37.4554 20.0449 37.4809 19.6991C37.5755 18.4213 37.7104 16.5976 38.1056 14.306C38.2698 13.3534 38.6962 12.5287 39.1857 11.9912C39.5629 11.5769 39.8893 11.4164 40.1136 11.3765C38.9258 11.2936 36.8707 11.7978 36.543 14.5215C36.3937 15.7631 36.3048 16.733 36.2342 17.5039Z" fill="#C1720D"/>
<path d="M35.2064 8.81939C35.2093 9.26456 35.5725 9.62307 36.0177 9.62017C36.4628 9.61725 36.8214 9.25401 36.8185 8.80887C36.7943 5.10957 33.982 -0.0392863 27.9375 0.000226049C27.4924 0.00312781 27.1338 0.366364 27.1367 0.811527C27.1396 1.25667 27.5028 1.61519 27.9479 1.61228C32.8353 1.58033 35.1861 5.71783 35.2064 8.81939Z" fill="#6F6F6F"/>
<path d="M33.3351 12.736C32.8899 12.7389 32.5267 12.3804 32.5238 11.9352C32.5142 10.4697 31.9097 8.51733 30.6262 6.94654C29.3629 5.40048 27.4547 4.23523 24.7907 4.25264C24.3456 4.25554 23.9824 3.89703 23.9795 3.45188C23.9766 3.00672 24.3351 2.6435 24.7802 2.64058C27.9851 2.61964 30.3382 4.04622 31.8746 5.92653C33.3907 7.7821 34.1239 10.0906 34.1358 11.9247C34.1387 12.3699 33.7802 12.7331 33.3351 12.736Z" fill="#6F6F6F"/>
<path d="M4.31424 25.0251C4.31424 24.58 3.95336 24.2191 3.50819 24.2191C3.06303 24.2191 2.70215 24.58 2.70215 25.0251C2.70215 26.8593 3.42019 29.1725 4.92414 31.0379C6.44813 32.9282 8.79189 34.3702 11.9969 34.3702C12.442 34.3702 12.8029 34.0093 12.8029 33.5642C12.8029 33.1189 12.442 32.7581 11.9969 32.7581C9.33281 32.7581 7.43223 31.5803 6.17915 30.0261C4.90602 28.4469 4.31424 26.4907 4.31424 25.0251Z" fill="#6F6F6F"/>
<path d="M1.61209 28.1233C1.61209 27.678 1.25121 27.3173 0.806045 27.3173C0.360883 27.3173 0 27.678 0 28.1233C0 31.8226 2.77863 36.9898 8.82321 36.9898C9.26838 36.9898 9.62926 36.6289 9.62926 36.1838C9.62926 35.7385 9.26838 35.3777 8.82321 35.3777C3.93579 35.3777 1.61209 31.225 1.61209 28.1233Z" fill="#6F6F6F"/>
</svg>
