<svg width="50" height="50" viewBox="0 0 50 50" fill="none" xmlns="http://www.w3.org/2000/svg">
<rect width="50" height="50" fill="white"/>
<path d="M31.9063 41.0005C31.9063 44.8662 28.7583 48 24.875 48C20.9917 48 17.8438 44.8662 17.8438 41.0005C17.8438 37.1347 24.2305 31.6444 24.875 29.8945C25.6367 31.7611 31.9063 37.1347 31.9063 41.0005Z" fill="#3532A7"/>
<ellipse cx="15.2949" cy="29.6309" rx="6.5918" ry="1.66992" fill="#3532A7"/>
<path d="M21.9674 28.0418C20.5359 27.6582 17.6843 26.7384 14.2387 23.2928C10.793 19.8471 9.96426 17.5328 9.48965 15.5641C11.1887 16.0193 13.7727 16.8675 17.2184 20.3131C20.664 23.7587 21.3959 26.1464 21.9674 28.0418Z" fill="#3532A7"/>
<path d="M27.9474 28.0419C28.331 26.6103 29.2508 23.7588 32.6965 20.3132C36.1421 16.8675 38.4564 16.0387 40.4252 15.5641C39.9699 17.2632 39.1218 19.8472 35.6762 23.2928C32.2305 26.7385 29.8429 27.4704 27.9474 28.0419Z" fill="#3532A7"/>
<ellipse cx="34.6318" cy="29.6309" rx="6.5918" ry="1.66992" fill="#3532A7"/>
<ellipse cx="24.875" cy="15.3047" rx="4.21875" ry="12.3047" fill="#3532A7"/>
</svg>
