<svg width="54" height="54" viewBox="0 0 54 54" fill="none" xmlns="http://www.w3.org/2000/svg">
<g clip-path="url(#clip0_823_120)">
<rect x="2" y="2" width="50" height="50" rx="25" fill="url(#paint0_linear_823_120)"/>
<rect width="50" height="50" transform="translate(2 2)" fill="white"/>
<path d="M33.9063 43.0005C33.9063 46.8662 30.7583 50 26.875 50C22.9917 50 19.8438 46.8662 19.8438 43.0005C19.8438 39.1347 26.2305 33.6444 26.875 31.8945C27.6367 33.7611 33.9063 39.1347 33.9063 43.0005Z" fill="#3532A7"/>
<ellipse cx="17.2949" cy="31.6309" rx="6.5918" ry="1.66992" fill="#3532A7"/>
<path d="M23.9684 30.0418C22.5368 29.6583 19.6853 28.7384 16.2397 25.2928C12.794 21.8472 11.9652 19.5328 11.4906 17.5641C13.1897 18.0193 15.7737 18.8675 19.2193 22.3131C22.665 25.7588 23.3969 28.1464 23.9684 30.0418Z" fill="#3532A7"/>
<path d="M29.9465 30.0418C30.33 28.6103 31.2499 25.7588 34.6955 22.3131C38.1411 18.8675 40.4555 18.0387 42.4242 17.5641C41.969 19.2632 41.1208 21.8472 37.6752 25.2928C34.2295 28.7385 31.8419 29.4704 29.9465 30.0418Z" fill="#3532A7"/>
<ellipse cx="36.6309" cy="31.6309" rx="6.5918" ry="1.66992" fill="#3532A7"/>
<ellipse cx="26.875" cy="17.3047" rx="4.21875" ry="12.3047" fill="#3532A7"/>
</g>
<rect x="1.25" y="1.25" width="51.5" height="51.5" rx="25.75" stroke="#4F62CC" stroke-width="1.5"/>
<defs>
<linearGradient id="paint0_linear_823_120" x1="52" y1="27" x2="2" y2="27" gradientUnits="userSpaceOnUse">
<stop stop-color="#4A48B0"/>
<stop offset="1" stop-color="#423FAD"/>
</linearGradient>
<clipPath id="clip0_823_120">
<rect x="2" y="2" width="50" height="50" rx="25" fill="white"/>
</clipPath>
</defs>
</svg>
