<svg width="50" height="50" viewBox="0 0 50 50" fill="none" xmlns="http://www.w3.org/2000/svg">
<rect width="50" height="50" rx="25" fill="#4F62CC" fill-opacity="0.15"/>
<rect x="1" y="1" width="48" height="48" rx="24" stroke="#4F62CC" stroke-opacity="0.5" stroke-width="2"/>
<path d="M17.18 32L11.62 18.12H13.66L18.24 29.86H17.5L22.12 18.12H24.14L18.54 32H17.18ZM31.9083 32.2C30.9349 32.2 30.0216 32.02 29.1683 31.66C28.3283 31.2867 27.5883 30.7733 26.9483 30.12C26.3216 29.4667 25.8283 28.7067 25.4683 27.84C25.1083 26.9733 24.9283 26.04 24.9283 25.04C24.9283 24.04 25.1083 23.1133 25.4683 22.26C25.8283 21.3933 26.3283 20.6333 26.9683 19.98C27.6083 19.3267 28.3549 18.82 29.2083 18.46C30.0749 18.1 31.0149 17.92 32.0283 17.92C33.1349 17.92 34.1549 18.1333 35.0883 18.56C36.0216 18.9867 36.8016 19.6 37.4283 20.4L36.1283 21.7C35.6883 21.06 35.1083 20.5733 34.3883 20.24C33.6683 19.8933 32.8816 19.72 32.0283 19.72C31.0149 19.72 30.1149 19.9467 29.3283 20.4C28.5549 20.8533 27.9483 21.48 27.5083 22.28C27.0816 23.08 26.8683 24 26.8683 25.04C26.8683 26.0933 27.0883 27.02 27.5283 27.82C27.9683 28.62 28.5616 29.2467 29.3083 29.7C30.0549 30.1533 30.9083 30.38 31.8683 30.38C32.8416 30.38 33.6816 30.1933 34.3883 29.82C35.1083 29.4467 35.6616 28.9 36.0483 28.18C36.4349 27.4467 36.6283 26.5533 36.6283 25.5L37.7683 26.32H31.7683V24.6H38.5683V24.88C38.5683 26.4933 38.2816 27.8467 37.7083 28.94C37.1483 30.02 36.3616 30.8333 35.3483 31.38C34.3483 31.9267 33.2016 32.2 31.9083 32.2Z" fill="#4F62CC" fill-opacity="0.5"/>
</svg>
