<svg width="512" height="512" viewBox="0 0 512 512" fill="none" xmlns="http://www.w3.org/2000/svg">
<rect width="512" height="512" rx="48" fill="#2563EB"/>
<path d="M46.7483 239.327C27.2208 186.232 15.5688 77.2324 125.181 66C159.233 66.6455 223.174 95.0492 206.519 203.5C231.695 189.169 249.932 186.554 255.903 187.038V384.573V446.545C21.5723 419.82 18.8288 297.264 46.7483 239.327Z" fill="white"/>
<path d="M464.573 239.327C484.101 186.232 495.753 77.2324 386.14 66C352.088 66.6455 288.148 95.0492 304.802 203.5C279.626 189.169 261.39 186.554 255.419 187.038V384.573V446.545C489.749 419.82 492.493 297.264 464.573 239.327Z" fill="white"/>
<path d="M170.471 291.108C182.436 360.508 230.59 378.445 253.172 378.738C312.646 380.147 334.26 320.905 337.633 291.108C356.284 281.244 358.895 273.2 357.868 270.411C358.22 264.775 355.082 261.017 353.469 259.843C341.856 256.32 328.688 246.339 323.556 241.788C296.458 202.332 265.342 196.872 253.172 199.074C221.851 197.312 195.838 226.816 186.747 241.788C180.06 249.891 162.846 257.201 155.074 259.843C150.499 262.309 150.528 267.916 151.115 270.411C151.467 280.275 164.165 288.319 170.471 291.108Z" fill="#11325A"/>
<path d="M166.819 268.86C185.798 285.128 232.502 293.068 253.482 295.005V210.762C219.592 209.309 189.09 253.851 187.153 256.756C185.604 259.08 172.951 265.794 166.819 268.86Z" fill="#FFBB00"/>
<path d="M339.662 268.86C320.683 285.128 273.978 293.068 252.998 295.005V210.762C286.889 209.309 317.391 253.851 319.327 256.756C320.877 259.08 333.529 265.794 339.662 268.86Z" fill="#FFBB00"/>
<path d="M196.836 329.379C207.681 356.879 239.119 365.368 253.482 366.175V326.474C250.771 326.087 214.589 328.25 196.836 329.379Z" fill="#FF702E"/>
<path d="M309.644 329.379C298.799 356.879 267.362 365.368 252.998 366.175V326.475C255.71 326.087 291.892 328.25 309.644 329.379Z" fill="#FF702E"/>
<path d="M434.698 168.201C433.923 224.362 398.87 237.112 381.441 236.466C338.835 236.466 327.538 190.956 327.215 168.201C329.927 113.588 364.495 103.163 381.441 104.776C423.272 105.164 434.375 147.221 434.698 168.201Z" fill="#10315C"/>
<path d="M380.472 156.581C378.923 170.525 369.821 174.979 365.463 175.463C360.783 176.27 351.035 173.623 349.486 156.581C347.937 139.539 359.492 136.247 365.463 136.731C371.112 137.538 382.021 142.637 380.472 156.581Z" fill="white"/>
<path d="M78.7028 168.156C79.4775 224.318 114.53 237.068 131.96 236.422C174.565 236.422 185.862 190.912 186.185 168.156C183.474 113.544 148.905 103.118 131.96 104.732C90.1289 105.12 79.0256 147.176 78.7028 168.156Z" fill="#10315C"/>
<path d="M132.927 156.537C134.477 170.48 143.579 174.934 147.936 175.419C152.616 176.226 162.364 173.579 163.913 156.537C165.463 139.494 153.907 136.202 147.936 136.686C142.288 137.493 131.378 142.593 132.927 156.537Z" fill="white"/>
</svg>
